<mxfile host="Electron" modified="2023-11-24T12:47:43.671Z" agent="Mozilla/5.0 (X11; Linux x86_64) AppleWebKit/537.36 (KHTML, like Gecko) draw.io/22.0.3 Chrome/114.0.5735.289 Electron/25.8.4 Safari/537.36" etag="G7DIz4kgZ3Ccmp-aADbl" version="22.0.3" type="device">
  <diagram id="C5RBs43oDa-KdzZeNtuy" name="Page-1">
    <mxGraphModel dx="3126" dy="5119" grid="1" gridSize="10" guides="1" tooltips="1" connect="1" arrows="1" fold="1" page="1" pageScale="1" pageWidth="1654" pageHeight="2336" background="none" math="0" shadow="0">
      <root>
        <mxCell id="WIyWlLk6GJQsqaUBKTNV-0" />
        <mxCell id="WIyWlLk6GJQsqaUBKTNV-1" parent="WIyWlLk6GJQsqaUBKTNV-0" />
        <mxCell id="a7R21iSJzMiIbQIbHtYF-0" value="SignalParameters" style="swimlane;fontStyle=1;align=center;verticalAlign=top;childLayout=stackLayout;horizontal=1;startSize=40;horizontalStack=0;resizeParent=1;resizeParentMax=0;resizeLast=0;collapsible=1;marginBottom=0;whiteSpace=wrap;html=1;fontSize=23;strokeWidth=2;shadow=0;fillColor=none;strokeColor=#000000;fontColor=#000000;" parent="WIyWlLk6GJQsqaUBKTNV-1" vertex="1">
          <mxGeometry x="3291" y="-2260" width="750" height="955" as="geometry">
            <mxRectangle x="3320" y="-2650" width="130" height="30" as="alternateBounds" />
          </mxGeometry>
        </mxCell>
        <mxCell id="a7R21iSJzMiIbQIbHtYF-1" value="# positionality_: uint16_t " style="text;align=left;verticalAlign=top;spacingLeft=4;spacingRight=4;overflow=hidden;rotatable=0;points=[[0,0.5],[1,0.5]];portConstraint=eastwest;rounded=0;shadow=0;html=0;fontStyle=0;fontSize=23;strokeWidth=2;fillColor=none;strokeColor=none;fontColor=#000000;" parent="a7R21iSJzMiIbQIbHtYF-0" vertex="1">
          <mxGeometry y="40" width="750" height="43" as="geometry" />
        </mxCell>
        <mxCell id="a7R21iSJzMiIbQIbHtYF-2" value="# amplitude_: double" style="text;align=left;verticalAlign=top;spacingLeft=4;spacingRight=4;overflow=hidden;rotatable=0;points=[[0,0.5],[1,0.5]];portConstraint=eastwest;rounded=0;shadow=0;html=0;fontStyle=0;fontSize=23;strokeWidth=2;fillColor=none;strokeColor=none;fontColor=#000000;" parent="a7R21iSJzMiIbQIbHtYF-0" vertex="1">
          <mxGeometry y="83" width="750" height="43" as="geometry" />
        </mxCell>
        <mxCell id="a7R21iSJzMiIbQIbHtYF-3" value="# phase_: double" style="text;align=left;verticalAlign=top;spacingLeft=4;spacingRight=4;overflow=hidden;rotatable=0;points=[[0,0.5],[1,0.5]];portConstraint=eastwest;rounded=0;shadow=0;html=0;fontStyle=0;fontSize=23;strokeWidth=2;fillColor=none;strokeColor=none;fontColor=#000000;" parent="a7R21iSJzMiIbQIbHtYF-0" vertex="1">
          <mxGeometry y="126" width="750" height="43" as="geometry" />
        </mxCell>
        <mxCell id="a7R21iSJzMiIbQIbHtYF-13" value="# phase_shift_: double" style="text;align=left;verticalAlign=top;spacingLeft=4;spacingRight=4;overflow=hidden;rotatable=0;points=[[0,0.5],[1,0.5]];portConstraint=eastwest;rounded=0;shadow=0;html=0;fontStyle=0;fontSize=23;strokeWidth=2;fillColor=none;strokeColor=none;fontColor=#000000;" parent="a7R21iSJzMiIbQIbHtYF-0" vertex="1">
          <mxGeometry y="169" width="750" height="43" as="geometry" />
        </mxCell>
        <mxCell id="vz_PbE0ap6OXvhXblCDS-0" value="# symbol_speed_: uint32_t" style="text;align=left;verticalAlign=top;spacingLeft=4;spacingRight=4;overflow=hidden;rotatable=0;points=[[0,0.5],[1,0.5]];portConstraint=eastwest;rounded=0;shadow=0;html=0;fontStyle=0;fontSize=23;strokeWidth=2;fillColor=none;strokeColor=none;fontColor=#000000;" vertex="1" parent="a7R21iSJzMiIbQIbHtYF-0">
          <mxGeometry y="212" width="750" height="43" as="geometry" />
        </mxCell>
        <mxCell id="a7R21iSJzMiIbQIbHtYF-14" value="# carrier_frequency_: uint32_t" style="text;align=left;verticalAlign=top;spacingLeft=4;spacingRight=4;overflow=hidden;rotatable=0;points=[[0,0.5],[1,0.5]];portConstraint=eastwest;rounded=0;shadow=0;html=0;fontStyle=0;fontSize=23;strokeWidth=2;fillColor=none;strokeColor=none;fontColor=#000000;" parent="a7R21iSJzMiIbQIbHtYF-0" vertex="1">
          <mxGeometry y="255" width="750" height="43" as="geometry" />
        </mxCell>
        <mxCell id="a7R21iSJzMiIbQIbHtYF-15" value="# carrier_cyclic_frequency_: double" style="text;align=left;verticalAlign=top;spacingLeft=4;spacingRight=4;overflow=hidden;rotatable=0;points=[[0,0.5],[1,0.5]];portConstraint=eastwest;rounded=0;shadow=0;html=0;fontStyle=0;fontSize=23;strokeWidth=2;fillColor=none;strokeColor=none;fontColor=#000000;" parent="a7R21iSJzMiIbQIbHtYF-0" vertex="1">
          <mxGeometry y="298" width="750" height="43" as="geometry" />
        </mxCell>
        <mxCell id="a7R21iSJzMiIbQIbHtYF-16" value="# sampling_frequency_: uint32_t" style="text;align=left;verticalAlign=top;spacingLeft=4;spacingRight=4;overflow=hidden;rotatable=0;points=[[0,0.5],[1,0.5]];portConstraint=eastwest;rounded=0;shadow=0;html=0;fontStyle=0;fontSize=23;strokeWidth=2;fillColor=none;strokeColor=none;fontColor=#000000;" parent="a7R21iSJzMiIbQIbHtYF-0" vertex="1">
          <mxGeometry y="341" width="750" height="43" as="geometry" />
        </mxCell>
        <mxCell id="a7R21iSJzMiIbQIbHtYF-17" value="# time_step_between_samples_: double" style="text;align=left;verticalAlign=top;spacingLeft=4;spacingRight=4;overflow=hidden;rotatable=0;points=[[0,0.5],[1,0.5]];portConstraint=eastwest;rounded=0;shadow=0;html=0;fontStyle=0;fontSize=23;strokeWidth=2;fillColor=none;strokeColor=none;fontColor=#000000;" parent="a7R21iSJzMiIbQIbHtYF-0" vertex="1">
          <mxGeometry y="384" width="750" height="43" as="geometry" />
        </mxCell>
        <mxCell id="a7R21iSJzMiIbQIbHtYF-4" value="" style="line;strokeWidth=2;fillColor=none;align=left;verticalAlign=middle;spacingTop=-1;spacingLeft=3;spacingRight=3;rotatable=0;labelPosition=right;points=[];portConstraint=eastwest;strokeColor=inherit;" parent="a7R21iSJzMiIbQIbHtYF-0" vertex="1">
          <mxGeometry y="427" width="750" height="8" as="geometry" />
        </mxCell>
        <mxCell id="a7R21iSJzMiIbQIbHtYF-5" value="+ SignalParameters(sampling_frequency: int, symbol_speed: int)" style="text;align=left;verticalAlign=top;spacingLeft=4;spacingRight=4;overflow=hidden;rotatable=0;points=[[0,0.5],[1,0.5]];portConstraint=eastwest;rounded=0;shadow=0;html=0;fontSize=23;strokeWidth=2;fontStyle=0;fillColor=none;strokeColor=none;fontColor=#000000;" parent="a7R21iSJzMiIbQIbHtYF-0" vertex="1">
          <mxGeometry y="435" width="750" height="40" as="geometry" />
        </mxCell>
        <mxCell id="vz_PbE0ap6OXvhXblCDS-2" value="+ GetSamplingFrequency() const noexcept: uint32_t" style="text;align=left;verticalAlign=top;spacingLeft=4;spacingRight=4;overflow=hidden;rotatable=0;points=[[0,0.5],[1,0.5]];portConstraint=eastwest;rounded=0;shadow=0;html=0;fontStyle=0;fontSize=23;strokeWidth=2;fillColor=none;strokeColor=none;fontColor=#000000;" vertex="1" parent="a7R21iSJzMiIbQIbHtYF-0">
          <mxGeometry y="475" width="750" height="40" as="geometry" />
        </mxCell>
        <mxCell id="vz_PbE0ap6OXvhXblCDS-3" value="+ GetSymbolSpeed() const noexcept: uint32_t" style="text;align=left;verticalAlign=top;spacingLeft=4;spacingRight=4;overflow=hidden;rotatable=0;points=[[0,0.5],[1,0.5]];portConstraint=eastwest;rounded=0;shadow=0;html=0;fontStyle=0;fontSize=23;strokeWidth=2;fillColor=none;strokeColor=none;fontColor=#000000;" vertex="1" parent="a7R21iSJzMiIbQIbHtYF-0">
          <mxGeometry y="515" width="750" height="40" as="geometry" />
        </mxCell>
        <mxCell id="a7R21iSJzMiIbQIbHtYF-6" value="+ SetPositionality(positionality: int): SignalParameters&amp;" style="text;align=left;verticalAlign=top;spacingLeft=4;spacingRight=4;overflow=hidden;rotatable=0;points=[[0,0.5],[1,0.5]];portConstraint=eastwest;rounded=0;shadow=0;html=0;fontSize=23;strokeWidth=2;fontStyle=2;fillColor=none;strokeColor=none;fontColor=#000000;" parent="a7R21iSJzMiIbQIbHtYF-0" vertex="1">
          <mxGeometry y="555" width="750" height="40" as="geometry" />
        </mxCell>
        <mxCell id="a7R21iSJzMiIbQIbHtYF-7" value="+ GetPositionality() const noexcept: uint16_t" style="text;align=left;verticalAlign=top;spacingLeft=4;spacingRight=4;overflow=hidden;rotatable=0;points=[[0,0.5],[1,0.5]];portConstraint=eastwest;rounded=0;shadow=0;html=0;fontSize=23;strokeWidth=2;fontStyle=0;fillColor=none;strokeColor=none;fontColor=#000000;" parent="a7R21iSJzMiIbQIbHtYF-0" vertex="1">
          <mxGeometry y="595" width="750" height="40" as="geometry" />
        </mxCell>
        <mxCell id="a7R21iSJzMiIbQIbHtYF-8" value="+ SetAmplitude(new_amplitude: double): SignalParameters&amp;" style="text;align=left;verticalAlign=top;spacingLeft=4;spacingRight=4;overflow=hidden;rotatable=0;points=[[0,0.5],[1,0.5]];portConstraint=eastwest;rounded=0;shadow=0;html=0;fontStyle=0;fontSize=23;strokeWidth=2;fillColor=none;strokeColor=none;fontColor=#000000;" parent="a7R21iSJzMiIbQIbHtYF-0" vertex="1">
          <mxGeometry y="635" width="750" height="40" as="geometry" />
        </mxCell>
        <mxCell id="a7R21iSJzMiIbQIbHtYF-9" value="+ GetAmplitude() const noexcept: double" style="text;align=left;verticalAlign=top;spacingLeft=4;spacingRight=4;overflow=hidden;rotatable=0;points=[[0,0.5],[1,0.5]];portConstraint=eastwest;rounded=0;shadow=0;html=0;fontSize=23;strokeWidth=2;fontStyle=0;fillColor=none;strokeColor=none;fontColor=#000000;" parent="a7R21iSJzMiIbQIbHtYF-0" vertex="1">
          <mxGeometry y="675" width="750" height="40" as="geometry" />
        </mxCell>
        <mxCell id="a7R21iSJzMiIbQIbHtYF-10" value="+ SetPhase(new_phase: double) noexcept: SignalParameters&amp;" style="text;align=left;verticalAlign=top;spacingLeft=4;spacingRight=4;overflow=hidden;rotatable=0;points=[[0,0.5],[1,0.5]];portConstraint=eastwest;rounded=0;shadow=0;html=0;fontStyle=0;fontSize=23;strokeWidth=2;fillColor=none;strokeColor=none;fontColor=#000000;" parent="a7R21iSJzMiIbQIbHtYF-0" vertex="1">
          <mxGeometry y="715" width="750" height="40" as="geometry" />
        </mxCell>
        <mxCell id="a7R21iSJzMiIbQIbHtYF-11" value="+ GetPhase() const noexcept: double" style="text;align=left;verticalAlign=top;spacingLeft=4;spacingRight=4;overflow=hidden;rotatable=0;points=[[0,0.5],[1,0.5]];portConstraint=eastwest;rounded=0;shadow=0;html=0;fontStyle=0;fontSize=23;strokeWidth=2;fillColor=none;strokeColor=none;fontColor=#000000;" parent="a7R21iSJzMiIbQIbHtYF-0" vertex="1">
          <mxGeometry y="755" width="750" height="40" as="geometry" />
        </mxCell>
        <mxCell id="a7R21iSJzMiIbQIbHtYF-12" value="+ SetCarrierFrequency(carrier_frequency: int): SignalParameters&amp;" style="text;align=left;verticalAlign=top;spacingLeft=4;spacingRight=4;overflow=hidden;rotatable=0;points=[[0,0.5],[1,0.5]];portConstraint=eastwest;rounded=0;shadow=0;html=0;fontStyle=2;fontSize=23;strokeWidth=2;fillColor=none;strokeColor=none;fontColor=#000000;" parent="a7R21iSJzMiIbQIbHtYF-0" vertex="1">
          <mxGeometry y="795" width="750" height="40" as="geometry" />
        </mxCell>
        <mxCell id="vz_PbE0ap6OXvhXblCDS-1" value="+ GetCarrierFrequency() const noexcept: uint32_t" style="text;align=left;verticalAlign=top;spacingLeft=4;spacingRight=4;overflow=hidden;rotatable=0;points=[[0,0.5],[1,0.5]];portConstraint=eastwest;rounded=0;shadow=0;html=0;fontStyle=0;fontSize=23;strokeWidth=2;fillColor=none;strokeColor=none;fontColor=#000000;" vertex="1" parent="a7R21iSJzMiIbQIbHtYF-0">
          <mxGeometry y="835" width="750" height="40" as="geometry" />
        </mxCell>
        <mxCell id="vz_PbE0ap6OXvhXblCDS-4" value="+ SetPhaseShift(phase_shift: double): SignalParameters&amp;" style="text;align=left;verticalAlign=top;spacingLeft=4;spacingRight=4;overflow=hidden;rotatable=0;points=[[0,0.5],[1,0.5]];portConstraint=eastwest;rounded=0;shadow=0;html=0;fontStyle=2;fontSize=23;strokeWidth=2;fillColor=none;strokeColor=none;fontColor=#000000;" vertex="1" parent="a7R21iSJzMiIbQIbHtYF-0">
          <mxGeometry y="875" width="750" height="40" as="geometry" />
        </mxCell>
        <mxCell id="vz_PbE0ap6OXvhXblCDS-5" value="+ GetPhaseShift() const noexcept: double" style="text;align=left;verticalAlign=top;spacingLeft=4;spacingRight=4;overflow=hidden;rotatable=0;points=[[0,0.5],[1,0.5]];portConstraint=eastwest;rounded=0;shadow=0;html=0;fontStyle=0;fontSize=23;strokeWidth=2;fillColor=none;strokeColor=none;fontColor=#000000;" vertex="1" parent="a7R21iSJzMiIbQIbHtYF-0">
          <mxGeometry y="915" width="750" height="40" as="geometry" />
        </mxCell>
        <mxCell id="vz_PbE0ap6OXvhXblCDS-6" value="" style="swimlane;fontStyle=0;align=center;verticalAlign=top;childLayout=stackLayout;horizontal=1;startSize=0;horizontalStack=0;resizeParent=1;resizeLast=0;collapsible=1;marginBottom=0;rounded=0;shadow=0;strokeWidth=2;fontSize=23;fillColor=none;strokeColor=#000000;fontColor=#000000;" vertex="1" parent="WIyWlLk6GJQsqaUBKTNV-1">
          <mxGeometry x="2607" y="-1350" width="250" height="160" as="geometry">
            <mxRectangle x="400" y="20" width="160" height="26" as="alternateBounds" />
          </mxGeometry>
        </mxCell>
        <mxCell id="vz_PbE0ap6OXvhXblCDS-7" value="&lt;font style=&quot;font-size: 23px;&quot;&gt;«enumeration»&lt;br&gt;&lt;span style=&quot;font-size: 23px;&quot;&gt;&lt;b&gt;PresencePivotSymbol&lt;/b&gt;&lt;/span&gt;&lt;br&gt;&lt;/font&gt;" style="html=1;whiteSpace=wrap;fillColor=none;strokeWidth=2;strokeColor=#000000;fontColor=#000000;" vertex="1" parent="vz_PbE0ap6OXvhXblCDS-6">
          <mxGeometry width="250" height="80" as="geometry" />
        </mxCell>
        <mxCell id="vz_PbE0ap6OXvhXblCDS-8" value="WITH_PIVOT" style="text;align=left;verticalAlign=top;spacingLeft=4;spacingRight=4;overflow=hidden;rotatable=0;points=[[0,0.5],[1,0.5]];portConstraint=eastwest;rounded=0;shadow=0;html=0;fontSize=23;strokeWidth=2;fontStyle=0;fillColor=none;strokeColor=none;fontColor=#000000;" vertex="1" parent="vz_PbE0ap6OXvhXblCDS-6">
          <mxGeometry y="80" width="250" height="40" as="geometry" />
        </mxCell>
        <mxCell id="vz_PbE0ap6OXvhXblCDS-9" value="WITHOUT_PIVOT" style="text;align=left;verticalAlign=top;spacingLeft=4;spacingRight=4;overflow=hidden;rotatable=0;points=[[0,0.5],[1,0.5]];portConstraint=eastwest;rounded=0;shadow=0;html=0;fontSize=23;strokeWidth=2;fontStyle=0;fillColor=none;strokeColor=none;fontColor=#000000;" vertex="1" parent="vz_PbE0ap6OXvhXblCDS-6">
          <mxGeometry y="120" width="250" height="40" as="geometry" />
        </mxCell>
        <mxCell id="vz_PbE0ap6OXvhXblCDS-11" value="DPSKModulator" style="swimlane;fontStyle=1;align=center;verticalAlign=top;childLayout=stackLayout;horizontal=1;startSize=40;horizontalStack=0;resizeParent=1;resizeParentMax=0;resizeLast=0;collapsible=1;marginBottom=0;whiteSpace=wrap;html=1;fontSize=23;strokeWidth=2;shadow=0;fillColor=none;strokeColor=#000000;fontColor=#000000;" vertex="1" parent="WIyWlLk6GJQsqaUBKTNV-1">
          <mxGeometry x="2481" y="-1070" width="990" height="960" as="geometry">
            <mxRectangle x="2650" y="-1460" width="130" height="30" as="alternateBounds" />
          </mxGeometry>
        </mxCell>
        <mxCell id="vz_PbE0ap6OXvhXblCDS-12" value="- intermediate_frequency_: uint32_t " style="text;align=left;verticalAlign=top;spacingLeft=4;spacingRight=4;overflow=hidden;rotatable=0;points=[[0,0.5],[1,0.5]];portConstraint=eastwest;rounded=0;shadow=0;html=0;fontStyle=0;fontSize=23;strokeWidth=2;fillColor=none;strokeColor=none;fontColor=#000000;" vertex="1" parent="vz_PbE0ap6OXvhXblCDS-11">
          <mxGeometry y="40" width="990" height="43" as="geometry" />
        </mxCell>
        <mxCell id="vz_PbE0ap6OXvhXblCDS-17" value="- intermediate_cyclic_frequency_: double " style="text;align=left;verticalAlign=top;spacingLeft=4;spacingRight=4;overflow=hidden;rotatable=0;points=[[0,0.5],[1,0.5]];portConstraint=eastwest;rounded=0;shadow=0;html=0;fontStyle=0;fontSize=23;strokeWidth=2;fillColor=none;strokeColor=none;fontColor=#000000;" vertex="1" parent="vz_PbE0ap6OXvhXblCDS-11">
          <mxGeometry y="83" width="990" height="43" as="geometry" />
        </mxCell>
        <mxCell id="vz_PbE0ap6OXvhXblCDS-18" value="- phase_shifts_: std::map&lt;uint16_t, double&gt; " style="text;align=left;verticalAlign=top;spacingLeft=4;spacingRight=4;overflow=hidden;rotatable=0;points=[[0,0.5],[1,0.5]];portConstraint=eastwest;rounded=0;shadow=0;html=0;fontStyle=0;fontSize=23;strokeWidth=2;fillColor=none;strokeColor=none;fontColor=#000000;" vertex="1" parent="vz_PbE0ap6OXvhXblCDS-11">
          <mxGeometry y="126" width="990" height="43" as="geometry" />
        </mxCell>
        <mxCell id="vz_PbE0ap6OXvhXblCDS-19" value="- mod_function_: std::function&lt;double(double)&gt; " style="text;align=left;verticalAlign=top;spacingLeft=4;spacingRight=4;overflow=hidden;rotatable=0;points=[[0,0.5],[1,0.5]];portConstraint=eastwest;rounded=0;shadow=0;html=0;fontStyle=0;fontSize=23;strokeWidth=2;fillColor=none;strokeColor=none;fontColor=#000000;" vertex="1" parent="vz_PbE0ap6OXvhXblCDS-11">
          <mxGeometry y="169" width="990" height="43" as="geometry" />
        </mxCell>
        <mxCell id="vz_PbE0ap6OXvhXblCDS-20" value="- ortogonal_mod_function_: std::function&lt;double(double)&gt; " style="text;align=left;verticalAlign=top;spacingLeft=4;spacingRight=4;overflow=hidden;rotatable=0;points=[[0,0.5],[1,0.5]];portConstraint=eastwest;rounded=0;shadow=0;html=0;fontStyle=0;fontSize=23;strokeWidth=2;fillColor=none;strokeColor=none;fontColor=#000000;" vertex="1" parent="vz_PbE0ap6OXvhXblCDS-11">
          <mxGeometry y="212" width="990" height="43" as="geometry" />
        </mxCell>
        <mxCell id="vz_PbE0ap6OXvhXblCDS-13" value="" style="line;strokeWidth=2;fillColor=none;align=left;verticalAlign=middle;spacingTop=-1;spacingLeft=3;spacingRight=3;rotatable=0;labelPosition=right;points=[];portConstraint=eastwest;strokeColor=inherit;" vertex="1" parent="vz_PbE0ap6OXvhXblCDS-11">
          <mxGeometry y="255" width="990" height="8" as="geometry" />
        </mxCell>
        <mxCell id="vz_PbE0ap6OXvhXblCDS-14" value="+ DPSKModulator(sampling_frequency: int, symbol_speed: int, positionality: int)" style="text;align=left;verticalAlign=top;spacingLeft=4;spacingRight=4;overflow=hidden;rotatable=0;points=[[0,0.5],[1,0.5]];portConstraint=eastwest;rounded=0;shadow=0;html=0;fontStyle=0;fontSize=23;strokeWidth=2;fillColor=none;strokeColor=none;fontColor=#000000;" vertex="1" parent="vz_PbE0ap6OXvhXblCDS-11">
          <mxGeometry y="263" width="990" height="40" as="geometry" />
        </mxCell>
        <mxCell id="vz_PbE0ap6OXvhXblCDS-15" value="+ SetPositionality(positionality: int): DPSKModulator&amp;" style="text;align=left;verticalAlign=top;spacingLeft=4;spacingRight=4;overflow=hidden;rotatable=0;points=[[0,0.5],[1,0.5]];portConstraint=eastwest;rounded=0;shadow=0;html=0;fontStyle=0;fontSize=23;strokeWidth=2;fillColor=none;strokeColor=none;fontColor=#000000;" vertex="1" parent="vz_PbE0ap6OXvhXblCDS-11">
          <mxGeometry y="303" width="990" height="40" as="geometry" />
        </mxCell>
        <mxCell id="vz_PbE0ap6OXvhXblCDS-16" value="+ SetModulationFunction(mod_function: std::function&lt;double(double)&gt;): DPSKModulator&amp;" style="text;align=left;verticalAlign=top;spacingLeft=4;spacingRight=4;overflow=hidden;rotatable=0;points=[[0,0.5],[1,0.5]];portConstraint=eastwest;rounded=0;shadow=0;html=0;fontSize=23;strokeWidth=2;fontStyle=0;fillColor=none;strokeColor=none;fontColor=#000000;" vertex="1" parent="vz_PbE0ap6OXvhXblCDS-11">
          <mxGeometry y="343" width="990" height="40" as="geometry" />
        </mxCell>
        <mxCell id="vz_PbE0ap6OXvhXblCDS-21" value="+ GetPhaseShifts(mod_function: std::function&lt;double(double)&gt;) const noexcept: &#xa;const std::map&lt;uint16_t, double&gt;&amp;" style="text;align=left;verticalAlign=top;spacingLeft=4;spacingRight=4;overflow=hidden;rotatable=0;points=[[0,0.5],[1,0.5]];portConstraint=eastwest;rounded=0;shadow=0;html=0;fontSize=23;strokeWidth=2;fontStyle=0;fillColor=none;strokeColor=none;fontColor=#000000;" vertex="1" parent="vz_PbE0ap6OXvhXblCDS-11">
          <mxGeometry y="383" width="990" height="67" as="geometry" />
        </mxCell>
        <mxCell id="vz_PbE0ap6OXvhXblCDS-23" value="+ SetPhaseShift(phase_shift: double): DPSKModulator&amp;" style="text;align=left;verticalAlign=top;spacingLeft=4;spacingRight=4;overflow=hidden;rotatable=0;points=[[0,0.5],[1,0.5]];portConstraint=eastwest;rounded=0;shadow=0;html=0;fontSize=23;strokeWidth=2;fontStyle=0;fillColor=none;strokeColor=none;fontColor=#000000;" vertex="1" parent="vz_PbE0ap6OXvhXblCDS-11">
          <mxGeometry y="450" width="990" height="40" as="geometry" />
        </mxCell>
        <mxCell id="vz_PbE0ap6OXvhXblCDS-24" value="+ SetIntermediateFrequency(intermediate_frequency: int): DPSKModulator&amp;" style="text;align=left;verticalAlign=top;spacingLeft=4;spacingRight=4;overflow=hidden;rotatable=0;points=[[0,0.5],[1,0.5]];portConstraint=eastwest;rounded=0;shadow=0;html=0;fontSize=23;strokeWidth=2;fontStyle=0;fillColor=none;strokeColor=none;fontColor=#000000;" vertex="1" parent="vz_PbE0ap6OXvhXblCDS-11">
          <mxGeometry y="490" width="990" height="40" as="geometry" />
        </mxCell>
        <mxCell id="vz_PbE0ap6OXvhXblCDS-25" value="+ GetIntermediateFrequency() const noexcept: uint32_t " style="text;align=left;verticalAlign=top;spacingLeft=4;spacingRight=4;overflow=hidden;rotatable=0;points=[[0,0.5],[1,0.5]];portConstraint=eastwest;rounded=0;shadow=0;html=0;fontSize=23;strokeWidth=2;fontStyle=0;fillColor=none;strokeColor=none;fontColor=#000000;" vertex="1" parent="vz_PbE0ap6OXvhXblCDS-11">
          <mxGeometry y="530" width="990" height="40" as="geometry" />
        </mxCell>
        <mxCell id="vz_PbE0ap6OXvhXblCDS-26" value="+ Modulation(bits: const std::vector&lt;bool&gt;&amp;, is_presence: PresencePivotSymbol): &#xa;std::vector&lt;double&gt; " style="text;align=left;verticalAlign=top;spacingLeft=4;spacingRight=4;overflow=hidden;rotatable=0;points=[[0,0.5],[1,0.5]];portConstraint=eastwest;rounded=0;shadow=0;html=0;fontSize=23;strokeWidth=2;fontStyle=0;fillColor=none;strokeColor=none;fontColor=#000000;" vertex="1" parent="vz_PbE0ap6OXvhXblCDS-11">
          <mxGeometry y="570" width="990" height="70" as="geometry" />
        </mxCell>
        <mxCell id="vz_PbE0ap6OXvhXblCDS-27" value="+ Modulation(bits: const std::vector&lt;bool&gt;&amp;, positionality: int, &#xa;is_presence: PresencePivotSymbol): std::vector&lt;double&gt; " style="text;align=left;verticalAlign=top;spacingLeft=4;spacingRight=4;overflow=hidden;rotatable=0;points=[[0,0.5],[1,0.5]];portConstraint=eastwest;rounded=0;shadow=0;html=0;fontSize=23;strokeWidth=2;fontStyle=0;fillColor=none;strokeColor=none;fontColor=#000000;" vertex="1" parent="vz_PbE0ap6OXvhXblCDS-11">
          <mxGeometry y="640" width="990" height="70" as="geometry" />
        </mxCell>
        <mxCell id="vz_PbE0ap6OXvhXblCDS-29" value="+ ModulationOneSymbol(begin_samples: std::vector&lt;double&gt;::iterator, &#xa;end_samples: std::vector&lt;double&gt;::iterator, current_symbol: uint16_t, phase:double&amp;) const " style="text;align=left;verticalAlign=top;spacingLeft=4;spacingRight=4;overflow=hidden;rotatable=0;points=[[0,0.5],[1,0.5]];portConstraint=eastwest;rounded=0;shadow=0;html=0;fontSize=23;strokeWidth=2;fontStyle=0;fillColor=none;strokeColor=none;fontColor=#000000;" vertex="1" parent="vz_PbE0ap6OXvhXblCDS-11">
          <mxGeometry y="710" width="990" height="70" as="geometry" />
        </mxCell>
        <mxCell id="vz_PbE0ap6OXvhXblCDS-30" value="- FillPhaseShifts()" style="text;align=left;verticalAlign=top;spacingLeft=4;spacingRight=4;overflow=hidden;rotatable=0;points=[[0,0.5],[1,0.5]];portConstraint=eastwest;rounded=0;shadow=0;html=0;fontSize=23;strokeWidth=2;fontStyle=0;fillColor=none;strokeColor=none;fontColor=#000000;" vertex="1" parent="vz_PbE0ap6OXvhXblCDS-11">
          <mxGeometry y="780" width="990" height="40" as="geometry" />
        </mxCell>
        <mxCell id="vz_PbE0ap6OXvhXblCDS-31" value="- ClassicalModulation(symbols: const std::vector&lt;uint32_t&gt;&amp;, &#xa;modulated_signal: std::vector&lt;double&gt;&amp;, num_samples_in_symbol: uint16_t)" style="text;align=left;verticalAlign=top;spacingLeft=4;spacingRight=4;overflow=hidden;rotatable=0;points=[[0,0.5],[1,0.5]];portConstraint=eastwest;rounded=0;shadow=0;html=0;fontSize=23;strokeWidth=2;fontStyle=0;fillColor=none;strokeColor=none;fontColor=#000000;" vertex="1" parent="vz_PbE0ap6OXvhXblCDS-11">
          <mxGeometry y="820" width="990" height="70" as="geometry" />
        </mxCell>
        <mxCell id="vz_PbE0ap6OXvhXblCDS-32" value="- ModulationWithUseIntermediateFreq(symbols: const std::vector&lt;uint32_t&gt;&amp;,&#xa;modulated_signal: std::vector&lt;double&gt;&amp;, num_samples_in_symbol: uint16_t)" style="text;align=left;verticalAlign=top;spacingLeft=4;spacingRight=4;overflow=hidden;rotatable=0;points=[[0,0.5],[1,0.5]];portConstraint=eastwest;rounded=0;shadow=0;html=0;fontSize=23;strokeWidth=2;fontStyle=0;fillColor=none;strokeColor=none;fontColor=#000000;" vertex="1" parent="vz_PbE0ap6OXvhXblCDS-11">
          <mxGeometry y="890" width="990" height="70" as="geometry" />
        </mxCell>
        <mxCell id="vz_PbE0ap6OXvhXblCDS-33" value="DPSKDemodulator" style="swimlane;fontStyle=1;align=center;verticalAlign=top;childLayout=stackLayout;horizontal=1;startSize=40;horizontalStack=0;resizeParent=1;resizeParentMax=0;resizeLast=0;collapsible=1;marginBottom=0;whiteSpace=wrap;html=1;fontSize=23;strokeWidth=2;shadow=0;fillColor=none;strokeColor=#000000;fontColor=#000000;" vertex="1" parent="WIyWlLk6GJQsqaUBKTNV-1">
          <mxGeometry x="3861" y="-1070" width="1060" height="1030" as="geometry">
            <mxRectangle x="3890" y="-1460" width="130" height="30" as="alternateBounds" />
          </mxGeometry>
        </mxCell>
        <mxCell id="vz_PbE0ap6OXvhXblCDS-34" value="- cos_oscillation_: std::vector&lt;double&gt; " style="text;align=left;verticalAlign=top;spacingLeft=4;spacingRight=4;overflow=hidden;rotatable=0;points=[[0,0.5],[1,0.5]];portConstraint=eastwest;rounded=0;shadow=0;html=0;fontStyle=0;fontSize=23;strokeWidth=2;fillColor=none;strokeColor=none;fontColor=#000000;" vertex="1" parent="vz_PbE0ap6OXvhXblCDS-33">
          <mxGeometry y="40" width="1060" height="43" as="geometry" />
        </mxCell>
        <mxCell id="vz_PbE0ap6OXvhXblCDS-42" value="- sin_oscillation_: std::vector&lt;double&gt; " style="text;align=left;verticalAlign=top;spacingLeft=4;spacingRight=4;overflow=hidden;rotatable=0;points=[[0,0.5],[1,0.5]];portConstraint=eastwest;rounded=0;shadow=0;html=0;fontStyle=0;fontSize=23;strokeWidth=2;fillColor=none;strokeColor=none;fontColor=#000000;" vertex="1" parent="vz_PbE0ap6OXvhXblCDS-33">
          <mxGeometry y="83" width="1060" height="43" as="geometry" />
        </mxCell>
        <mxCell id="vz_PbE0ap6OXvhXblCDS-43" value="- bounds_symbols_: std::vector&lt;double&gt; " style="text;align=left;verticalAlign=top;spacingLeft=4;spacingRight=4;overflow=hidden;rotatable=0;points=[[0,0.5],[1,0.5]];portConstraint=eastwest;rounded=0;shadow=0;html=0;fontStyle=0;fontSize=23;strokeWidth=2;fillColor=none;strokeColor=none;fontColor=#000000;" vertex="1" parent="vz_PbE0ap6OXvhXblCDS-33">
          <mxGeometry y="126" width="1060" height="43" as="geometry" />
        </mxCell>
        <mxCell id="vz_PbE0ap6OXvhXblCDS-44" value="- symbols_sequence_on_circle_: std::vector&lt;uint32_t&gt; " style="text;align=left;verticalAlign=top;spacingLeft=4;spacingRight=4;overflow=hidden;rotatable=0;points=[[0,0.5],[1,0.5]];portConstraint=eastwest;rounded=0;shadow=0;html=0;fontStyle=0;fontSize=23;strokeWidth=2;fillColor=none;strokeColor=none;fontColor=#000000;" vertex="1" parent="vz_PbE0ap6OXvhXblCDS-33">
          <mxGeometry y="169" width="1060" height="43" as="geometry" />
        </mxCell>
        <mxCell id="vz_PbE0ap6OXvhXblCDS-45" value="- decorrelation_matrix_: Matrix&lt;double&gt; " style="text;align=left;verticalAlign=top;spacingLeft=4;spacingRight=4;overflow=hidden;rotatable=0;points=[[0,0.5],[1,0.5]];portConstraint=eastwest;rounded=0;shadow=0;html=0;fontStyle=0;fontSize=23;strokeWidth=2;fillColor=none;strokeColor=none;fontColor=#000000;" vertex="1" parent="vz_PbE0ap6OXvhXblCDS-33">
          <mxGeometry y="212" width="1060" height="43" as="geometry" />
        </mxCell>
        <mxCell id="vz_PbE0ap6OXvhXblCDS-35" value="" style="line;strokeWidth=2;fillColor=none;align=left;verticalAlign=middle;spacingTop=-1;spacingLeft=3;spacingRight=3;rotatable=0;labelPosition=right;points=[];portConstraint=eastwest;strokeColor=inherit;" vertex="1" parent="vz_PbE0ap6OXvhXblCDS-33">
          <mxGeometry y="255" width="1060" height="8" as="geometry" />
        </mxCell>
        <mxCell id="vz_PbE0ap6OXvhXblCDS-39" value="+ DPSKDemodulator(sampling_frequency: int, symbol_speed: int, positionality: int)" style="text;align=left;verticalAlign=top;spacingLeft=4;spacingRight=4;overflow=hidden;rotatable=0;points=[[0,0.5],[1,0.5]];portConstraint=eastwest;rounded=0;shadow=0;html=0;fontStyle=0;fontSize=23;strokeWidth=2;fillColor=none;strokeColor=none;fontColor=#000000;" vertex="1" parent="vz_PbE0ap6OXvhXblCDS-33">
          <mxGeometry y="263" width="1060" height="40" as="geometry" />
        </mxCell>
        <mxCell id="vz_PbE0ap6OXvhXblCDS-40" value="+ SetPositionality(positionality: int): DPSKDemodulator&amp;" style="text;align=left;verticalAlign=top;spacingLeft=4;spacingRight=4;overflow=hidden;rotatable=0;points=[[0,0.5],[1,0.5]];portConstraint=eastwest;rounded=0;shadow=0;html=0;fontStyle=0;fontSize=23;strokeWidth=2;fillColor=none;strokeColor=none;fontColor=#000000;" vertex="1" parent="vz_PbE0ap6OXvhXblCDS-33">
          <mxGeometry y="303" width="1060" height="40" as="geometry" />
        </mxCell>
        <mxCell id="vz_PbE0ap6OXvhXblCDS-41" value="+ SetCarrierFrequency(carrier_frequency: int): DPSKDemodulator&amp;" style="text;align=left;verticalAlign=top;spacingLeft=4;spacingRight=4;overflow=hidden;rotatable=0;points=[[0,0.5],[1,0.5]];portConstraint=eastwest;rounded=0;shadow=0;html=0;fontStyle=0;fontSize=23;strokeWidth=2;fillColor=none;strokeColor=none;fontColor=#000000;" vertex="1" parent="vz_PbE0ap6OXvhXblCDS-33">
          <mxGeometry y="343" width="1060" height="40" as="geometry" />
        </mxCell>
        <mxCell id="vz_PbE0ap6OXvhXblCDS-47" value="+ ExtractInPhaseAndQuadratureComponentsSymbol(one_symbol_samples: const std::vector&lt;double&gt;&amp;)&#xa;const: std::complex&lt;double&gt;" style="text;align=left;verticalAlign=top;spacingLeft=4;spacingRight=4;overflow=hidden;rotatable=0;points=[[0,0.5],[1,0.5]];portConstraint=eastwest;rounded=0;shadow=0;html=0;fontStyle=0;fontSize=23;strokeWidth=2;fillColor=none;strokeColor=none;fontColor=#000000;" vertex="1" parent="vz_PbE0ap6OXvhXblCDS-33">
          <mxGeometry y="383" width="1060" height="67" as="geometry" />
        </mxCell>
        <mxCell id="vz_PbE0ap6OXvhXblCDS-48" value="+ ExtractInPhaseAndQuadratureComponentsSymbol(left_bound: std::vector&lt;double&gt;::const_iterator, &#xa;right_bound: std::vector&lt;double&gt;::const_iterator) const: std::complex&lt;double&gt;" style="text;align=left;verticalAlign=top;spacingLeft=4;spacingRight=4;overflow=hidden;rotatable=0;points=[[0,0.5],[1,0.5]];portConstraint=eastwest;rounded=0;shadow=0;html=0;fontStyle=0;fontSize=23;strokeWidth=2;fillColor=none;strokeColor=none;fontColor=#000000;" vertex="1" parent="vz_PbE0ap6OXvhXblCDS-33">
          <mxGeometry y="450" width="1060" height="67" as="geometry" />
        </mxCell>
        <mxCell id="vz_PbE0ap6OXvhXblCDS-49" value="+ ExtractPhaseValue(inphase_quadrature_components: std::complex&lt;double&gt;) const: double" style="text;align=left;verticalAlign=top;spacingLeft=4;spacingRight=4;overflow=hidden;rotatable=0;points=[[0,0.5],[1,0.5]];portConstraint=eastwest;rounded=0;shadow=0;html=0;fontStyle=0;fontSize=23;strokeWidth=2;fillColor=none;strokeColor=none;fontColor=#000000;" vertex="1" parent="vz_PbE0ap6OXvhXblCDS-33">
          <mxGeometry y="517" width="1060" height="40" as="geometry" />
        </mxCell>
        <mxCell id="vz_PbE0ap6OXvhXblCDS-50" value="+ Demodulation(samples: const std::vector&lt;double&gt;&amp;): std::vector&lt;uint32_t&gt;" style="text;align=left;verticalAlign=top;spacingLeft=4;spacingRight=4;overflow=hidden;rotatable=0;points=[[0,0.5],[1,0.5]];portConstraint=eastwest;rounded=0;shadow=0;html=0;fontStyle=0;fontSize=23;strokeWidth=2;fillColor=none;strokeColor=none;fontColor=#000000;" vertex="1" parent="vz_PbE0ap6OXvhXblCDS-33">
          <mxGeometry y="557" width="1060" height="40" as="geometry" />
        </mxCell>
        <mxCell id="vz_PbE0ap6OXvhXblCDS-51" value="+ GetBoundsSymbols(samples: const std::vector&lt;double&gt;&amp;) const noexcept: const std::vector&lt;double&gt;&amp;" style="text;align=left;verticalAlign=top;spacingLeft=4;spacingRight=4;overflow=hidden;rotatable=0;points=[[0,0.5],[1,0.5]];portConstraint=eastwest;rounded=0;shadow=0;html=0;fontStyle=0;fontSize=23;strokeWidth=2;fillColor=none;strokeColor=none;fontColor=#000000;" vertex="1" parent="vz_PbE0ap6OXvhXblCDS-33">
          <mxGeometry y="597" width="1060" height="40" as="geometry" />
        </mxCell>
        <mxCell id="vz_PbE0ap6OXvhXblCDS-52" value="+ GetSymbolsSequenceOnCircle(samples: const std::vector&lt;double&gt;&amp;) const noexcept:&#xa;const std::vector&lt;uint32_t&gt;&amp;" style="text;align=left;verticalAlign=top;spacingLeft=4;spacingRight=4;overflow=hidden;rotatable=0;points=[[0,0.5],[1,0.5]];portConstraint=eastwest;rounded=0;shadow=0;html=0;fontStyle=0;fontSize=23;strokeWidth=2;fillColor=none;strokeColor=none;fontColor=#000000;" vertex="1" parent="vz_PbE0ap6OXvhXblCDS-33">
          <mxGeometry y="637" width="1060" height="73" as="geometry" />
        </mxCell>
        <mxCell id="vz_PbE0ap6OXvhXblCDS-53" value="+ DefineSymbol(phase_difference: double) const noexcept: uint32_t " style="text;align=left;verticalAlign=top;spacingLeft=4;spacingRight=4;overflow=hidden;rotatable=0;points=[[0,0.5],[1,0.5]];portConstraint=eastwest;rounded=0;shadow=0;html=0;fontStyle=0;fontSize=23;strokeWidth=2;fillColor=none;strokeColor=none;fontColor=#000000;" vertex="1" parent="vz_PbE0ap6OXvhXblCDS-33">
          <mxGeometry y="710" width="1060" height="40" as="geometry" />
        </mxCell>
        <mxCell id="vz_PbE0ap6OXvhXblCDS-54" value="+ SetPhaseShift(phase_shift: double): DPSKDemodulator&amp;" style="text;align=left;verticalAlign=top;spacingLeft=4;spacingRight=4;overflow=hidden;rotatable=0;points=[[0,0.5],[1,0.5]];portConstraint=eastwest;rounded=0;shadow=0;html=0;fontSize=23;strokeWidth=2;fontStyle=0;fillColor=none;strokeColor=none;fontColor=#000000;" vertex="1" parent="vz_PbE0ap6OXvhXblCDS-33">
          <mxGeometry y="750" width="1060" height="40" as="geometry" />
        </mxCell>
        <mxCell id="vz_PbE0ap6OXvhXblCDS-55" value="+ GetDecorrelationMatrix(phase_shift: double) const noexcept: const Matrix&lt;double&gt;&amp;" style="text;align=left;verticalAlign=top;spacingLeft=4;spacingRight=4;overflow=hidden;rotatable=0;points=[[0,0.5],[1,0.5]];portConstraint=eastwest;rounded=0;shadow=0;html=0;fontSize=23;strokeWidth=2;fontStyle=0;fillColor=none;strokeColor=none;fontColor=#000000;" vertex="1" parent="vz_PbE0ap6OXvhXblCDS-33">
          <mxGeometry y="790" width="1060" height="40" as="geometry" />
        </mxCell>
        <mxCell id="vz_PbE0ap6OXvhXblCDS-56" value="- FillCosAndSinOscillation()" style="text;align=left;verticalAlign=top;spacingLeft=4;spacingRight=4;overflow=hidden;rotatable=0;points=[[0,0.5],[1,0.5]];portConstraint=eastwest;rounded=0;shadow=0;html=0;fontSize=23;strokeWidth=2;fontStyle=0;fillColor=none;strokeColor=none;fontColor=#000000;" vertex="1" parent="vz_PbE0ap6OXvhXblCDS-33">
          <mxGeometry y="830" width="1060" height="40" as="geometry" />
        </mxCell>
        <mxCell id="vz_PbE0ap6OXvhXblCDS-57" value="- FillSymbolsBounds()" style="text;align=left;verticalAlign=top;spacingLeft=4;spacingRight=4;overflow=hidden;rotatable=0;points=[[0,0.5],[1,0.5]];portConstraint=eastwest;rounded=0;shadow=0;html=0;fontSize=23;strokeWidth=2;fontStyle=0;fillColor=none;strokeColor=none;fontColor=#000000;" vertex="1" parent="vz_PbE0ap6OXvhXblCDS-33">
          <mxGeometry y="870" width="1060" height="40" as="geometry" />
        </mxCell>
        <mxCell id="vz_PbE0ap6OXvhXblCDS-58" value="- FillSymbolsSequenceOnCircle()" style="text;align=left;verticalAlign=top;spacingLeft=4;spacingRight=4;overflow=hidden;rotatable=0;points=[[0,0.5],[1,0.5]];portConstraint=eastwest;rounded=0;shadow=0;html=0;fontSize=23;strokeWidth=2;fontStyle=0;fillColor=none;strokeColor=none;fontColor=#000000;" vertex="1" parent="vz_PbE0ap6OXvhXblCDS-33">
          <mxGeometry y="910" width="1060" height="40" as="geometry" />
        </mxCell>
        <mxCell id="vz_PbE0ap6OXvhXblCDS-59" value="- CreateDecorrelationMatrix()" style="text;align=left;verticalAlign=top;spacingLeft=4;spacingRight=4;overflow=hidden;rotatable=0;points=[[0,0.5],[1,0.5]];portConstraint=eastwest;rounded=0;shadow=0;html=0;fontSize=23;strokeWidth=2;fontStyle=0;fillColor=none;strokeColor=none;fontColor=#000000;" vertex="1" parent="vz_PbE0ap6OXvhXblCDS-33">
          <mxGeometry y="950" width="1060" height="40" as="geometry" />
        </mxCell>
        <mxCell id="vz_PbE0ap6OXvhXblCDS-60" value="- Decorrelation(IQ_components: std::complex&lt;double&gt;): std::complex&lt;double&gt;" style="text;align=left;verticalAlign=top;spacingLeft=4;spacingRight=4;overflow=hidden;rotatable=0;points=[[0,0.5],[1,0.5]];portConstraint=eastwest;rounded=0;shadow=0;html=0;fontSize=23;strokeWidth=2;fontStyle=0;fillColor=none;strokeColor=none;fontColor=#000000;" vertex="1" parent="vz_PbE0ap6OXvhXblCDS-33">
          <mxGeometry y="990" width="1060" height="40" as="geometry" />
        </mxCell>
        <mxCell id="vz_PbE0ap6OXvhXblCDS-61" value="&lt;font style=&quot;font-size: 32px;&quot;&gt;Matrix&lt;br&gt;&lt;/font&gt;" style="shape=module;align=left;spacingLeft=20;align=center;verticalAlign=top;whiteSpace=wrap;html=1;strokeWidth=2;jettyWidth=48;jettyHeight=16;" vertex="1" parent="WIyWlLk6GJQsqaUBKTNV-1">
          <mxGeometry x="4501" y="-1295" width="304" height="85" as="geometry" />
        </mxCell>
        <mxCell id="vz_PbE0ap6OXvhXblCDS-62" value="&lt;font style=&quot;font-size: 32px;&quot;&gt;math&lt;br&gt;&lt;/font&gt;" style="shape=module;align=left;spacingLeft=20;align=center;verticalAlign=top;whiteSpace=wrap;html=1;strokeWidth=2;jettyWidth=48;jettyHeight=16;" vertex="1" parent="WIyWlLk6GJQsqaUBKTNV-1">
          <mxGeometry x="3514" y="-890" width="304" height="85" as="geometry" />
        </mxCell>
        <mxCell id="vz_PbE0ap6OXvhXblCDS-63" value="&lt;font style=&quot;font-size: 32px;&quot;&gt;gray_code&lt;br&gt;&lt;/font&gt;" style="shape=module;align=left;spacingLeft=20;align=center;verticalAlign=top;whiteSpace=wrap;html=1;strokeWidth=2;jettyWidth=48;jettyHeight=16;" vertex="1" parent="WIyWlLk6GJQsqaUBKTNV-1">
          <mxGeometry x="3514" y="-500" width="304" height="85" as="geometry" />
        </mxCell>
        <mxCell id="vz_PbE0ap6OXvhXblCDS-65" value="Extends" style="endArrow=block;endSize=20;endFill=0;html=1;rounded=0;fontSize=23;strokeWidth=2;entryX=0.5;entryY=1;entryDx=0;entryDy=0;" edge="1" parent="WIyWlLk6GJQsqaUBKTNV-1" target="a7R21iSJzMiIbQIbHtYF-0">
          <mxGeometry width="160" relative="1" as="geometry">
            <mxPoint x="3666" y="-1180" as="sourcePoint" />
            <mxPoint x="3411" y="-1220" as="targetPoint" />
          </mxGeometry>
        </mxCell>
        <mxCell id="vz_PbE0ap6OXvhXblCDS-67" value="" style="endArrow=none;html=1;rounded=0;strokeWidth=2;exitX=0.75;exitY=0;exitDx=0;exitDy=0;" edge="1" parent="WIyWlLk6GJQsqaUBKTNV-1" source="vz_PbE0ap6OXvhXblCDS-11">
          <mxGeometry width="50" height="50" relative="1" as="geometry">
            <mxPoint x="3391" y="-1190" as="sourcePoint" />
            <mxPoint x="3671" y="-1180" as="targetPoint" />
            <Array as="points">
              <mxPoint x="3224" y="-1180" />
            </Array>
          </mxGeometry>
        </mxCell>
        <mxCell id="vz_PbE0ap6OXvhXblCDS-68" value="" style="endArrow=none;html=1;rounded=0;strokeWidth=2;entryX=0.25;entryY=0;entryDx=0;entryDy=0;" edge="1" parent="WIyWlLk6GJQsqaUBKTNV-1" target="vz_PbE0ap6OXvhXblCDS-33">
          <mxGeometry width="50" height="50" relative="1" as="geometry">
            <mxPoint x="3671" y="-1180" as="sourcePoint" />
            <mxPoint x="3791" y="-1260" as="targetPoint" />
            <Array as="points">
              <mxPoint x="4126" y="-1180" />
            </Array>
          </mxGeometry>
        </mxCell>
        <mxCell id="vz_PbE0ap6OXvhXblCDS-69" value="&lt;font style=&quot;font-size: 20px;&quot;&gt;Use&lt;/font&gt;" style="endArrow=open;endSize=20;dashed=1;html=1;rounded=0;strokeWidth=2;exitX=0.25;exitY=0;exitDx=0;exitDy=0;entryX=0.485;entryY=1.006;entryDx=0;entryDy=0;entryPerimeter=0;" edge="1" parent="WIyWlLk6GJQsqaUBKTNV-1" source="vz_PbE0ap6OXvhXblCDS-11" target="vz_PbE0ap6OXvhXblCDS-9">
          <mxGeometry x="-0.0345" y="-24" width="160" relative="1" as="geometry">
            <mxPoint x="2451" y="-1240" as="sourcePoint" />
            <mxPoint x="2641" y="-1320" as="targetPoint" />
            <mxPoint y="-1" as="offset" />
          </mxGeometry>
        </mxCell>
        <mxCell id="vz_PbE0ap6OXvhXblCDS-70" value="&lt;font style=&quot;font-size: 20px;&quot;&gt;Use&lt;/font&gt;" style="endArrow=open;endSize=20;dashed=1;html=1;rounded=0;strokeWidth=2;exitX=0.75;exitY=0;exitDx=0;exitDy=0;entryX=0.5;entryY=1;entryDx=0;entryDy=0;" edge="1" parent="WIyWlLk6GJQsqaUBKTNV-1" source="vz_PbE0ap6OXvhXblCDS-33" target="vz_PbE0ap6OXvhXblCDS-61">
          <mxGeometry x="-0.0345" y="-24" width="160" relative="1" as="geometry">
            <mxPoint x="4473" y="-1105" as="sourcePoint" />
            <mxPoint x="4471" y="-1245" as="targetPoint" />
            <mxPoint y="-1" as="offset" />
          </mxGeometry>
        </mxCell>
        <mxCell id="vz_PbE0ap6OXvhXblCDS-71" value="&lt;font style=&quot;font-size: 20px;&quot;&gt;Use&lt;/font&gt;" style="endArrow=open;endSize=20;dashed=1;html=1;rounded=0;strokeWidth=2;entryX=0.5;entryY=0;entryDx=0;entryDy=0;exitX=0;exitY=0.5;exitDx=0;exitDy=0;" edge="1" parent="WIyWlLk6GJQsqaUBKTNV-1" source="vz_PbE0ap6OXvhXblCDS-48" target="vz_PbE0ap6OXvhXblCDS-63">
          <mxGeometry x="-0.3597" y="-14" width="160" relative="1" as="geometry">
            <mxPoint x="3581" y="-584.2424242424242" as="sourcePoint" />
            <mxPoint x="3131" y="-80" as="targetPoint" />
            <mxPoint as="offset" />
            <Array as="points">
              <mxPoint x="3666" y="-586" />
            </Array>
          </mxGeometry>
        </mxCell>
        <mxCell id="vz_PbE0ap6OXvhXblCDS-72" value="&lt;font style=&quot;font-size: 20px;&quot;&gt;Use&lt;/font&gt;" style="endArrow=open;endSize=20;dashed=1;html=1;rounded=0;strokeWidth=2;entryX=0.5;entryY=0;entryDx=0;entryDy=0;exitX=0;exitY=0.5;exitDx=0;exitDy=0;" edge="1" parent="WIyWlLk6GJQsqaUBKTNV-1" source="vz_PbE0ap6OXvhXblCDS-42" target="vz_PbE0ap6OXvhXblCDS-62">
          <mxGeometry x="-0.2595" y="-15" width="160" relative="1" as="geometry">
            <mxPoint x="3901" y="30" as="sourcePoint" />
            <mxPoint x="3913" y="147.5" as="targetPoint" />
            <mxPoint as="offset" />
            <Array as="points">
              <mxPoint x="3666" y="-965" />
            </Array>
          </mxGeometry>
        </mxCell>
        <mxCell id="vz_PbE0ap6OXvhXblCDS-82" value="&lt;font style=&quot;font-size: 20px;&quot;&gt;Use&lt;/font&gt;" style="endArrow=open;endSize=20;dashed=1;html=1;rounded=0;strokeWidth=2;entryX=0.5;entryY=1;entryDx=0;entryDy=0;exitX=1;exitY=0.5;exitDx=0;exitDy=0;" edge="1" parent="WIyWlLk6GJQsqaUBKTNV-1" source="vz_PbE0ap6OXvhXblCDS-16" target="vz_PbE0ap6OXvhXblCDS-62">
          <mxGeometry x="-0.2595" y="-15" width="160" relative="1" as="geometry">
            <mxPoint x="3746" y="-700" as="sourcePoint" />
            <mxPoint x="3551" y="-625" as="targetPoint" />
            <mxPoint as="offset" />
            <Array as="points">
              <mxPoint x="3666" y="-707" />
            </Array>
          </mxGeometry>
        </mxCell>
        <mxCell id="vz_PbE0ap6OXvhXblCDS-83" value="&lt;font style=&quot;font-size: 20px;&quot;&gt;Use&lt;/font&gt;" style="endArrow=open;endSize=20;dashed=1;html=1;rounded=0;strokeWidth=2;entryX=0.524;entryY=1.001;entryDx=0;entryDy=0;exitX=1;exitY=0.5;exitDx=0;exitDy=0;entryPerimeter=0;" edge="1" parent="WIyWlLk6GJQsqaUBKTNV-1" source="vz_PbE0ap6OXvhXblCDS-29" target="vz_PbE0ap6OXvhXblCDS-63">
          <mxGeometry x="-0.2595" y="-15" width="160" relative="1" as="geometry">
            <mxPoint x="3481" y="-302" as="sourcePoint" />
            <mxPoint x="3676" y="-400" as="targetPoint" />
            <mxPoint as="offset" />
            <Array as="points">
              <mxPoint x="3673" y="-325" />
            </Array>
          </mxGeometry>
        </mxCell>
      </root>
    </mxGraphModel>
  </diagram>
</mxfile>
